ffmpeg started on 2016-12-06 at 04:10:35
Report written to "Output/x264/results/ffmpeg/crowd_run_2160p50fast3500k.log"
Command line:
Tools/ffmpeg/ffmpeg -benchmark -y -i Input/y4m/crowd_run_2160p50.y4m -c:v libx264 -preset fast -b:v 3500k -an Output/x264/encoded/crowd_run_2160p50fast3500k.mkv
ffmpeg version N-82227-gdb23fde Copyright (c) 2000-2016 the FFmpeg developers
  built with gcc 5.4.0 (Ubuntu 5.4.0-6ubuntu1~16.04.2) 20160609
  configuration: --prefix=/home/jaroslav/ffmpeg_build --pkg-config-flags=--static --extra-cflags=-I/home/jaroslav/ffmpeg_build/include --extra-ldflags=-L/home/jaroslav/ffmpeg_build/lib --bindir=/home/jaroslav/bin --enable-gpl --enable-libass --enable-libfdk-aac --enable-libfreetype --enable-libmp3lame --enable-libopus --enable-libtheora --enable-libvorbis --enable-libvpx --enable-libx264 --enable-libx265 --enable-nvenc --enable-libmfx --enable-libxvid --enable-libgsm --enable-libopencore-amrnb --enable-version3 --enable-nonfree
  libavutil      55. 35.100 / 55. 35.100
  libavcodec     57. 66.101 / 57. 66.101
  libavformat    57. 57.100 / 57. 57.100
  libavdevice    57.  2.100 / 57.  2.100
  libavfilter     6. 66.100 /  6. 66.100
  libswscale      4.  3.100 /  4.  3.100
  libswresample   2.  4.100 /  2.  4.100
  libpostproc    54.  2.100 / 54.  2.100
Input #0, yuv4mpegpipe, from 'Input/y4m/crowd_run_2160p50.y4m':
  Duration: 00:00:10.00, start: 0.000000, bitrate: 4976642 kb/s
    Stream #0:0: Video: rawvideo (I420 / 0x30323449), yuv420p(progressive), 3840x2160, SAR 1:1 DAR 16:9, 50 fps, 50 tbr, 50 tbn, 50 tbc
[libx264 @ 0x32c81c0] using SAR=1/1
[libx264 @ 0x32c81c0] using cpu capabilities: MMX2 SSE2Fast SSSE3 SSE4.2 AVX FMA3 AVX2 LZCNT BMI2
[libx264 @ 0x32c81c0] profile High, level 5.2
[libx264 @ 0x32c81c0] 264 - core 148 - H.264/MPEG-4 AVC codec - Copyleft 2003-2016 - http://www.videolan.org/x264.html - options: cabac=1 ref=2 deblock=1:0:0 analyse=0x3:0x113 me=hex subme=6 psy=1 psy_rd=1.00:0.00 mixed_ref=1 me_range=16 chroma_me=1 trellis=1 8x8dct=1 cqm=0 deadzone=21,11 fast_pskip=1 chroma_qp_offset=-2 threads=6 lookahead_threads=1 sliced_threads=0 nr=0 decimate=1 interlaced=0 bluray_compat=0 constrained_intra=0 bframes=3 b_pyramid=2 b_adapt=1 b_bias=0 direct=1 weightb=1 open_gop=0 weightp=1 keyint=250 keyint_min=25 scenecut=40 intra_refresh=0 rc_lookahead=30 rc=abr mbtree=1 bitrate=3500 ratetol=1.0 qcomp=0.60 qpmin=0 qpmax=69 qpstep=4 ip_ratio=1.40 aq=1:1.00
Output #0, matroska, to 'Output/x264/encoded/crowd_run_2160p50fast3500k.mkv':
  Metadata:
    encoder         : Lavf57.57.100
    Stream #0:0: Video: h264 (libx264) (H264 / 0x34363248), yuv420p, 3840x2160 [SAR 1:1 DAR 16:9], q=-1--1, 3500 kb/s, 50 fps, 1k tbn, 50 tbc
    Metadata:
      encoder         : Lavc57.66.101 libx264
    Side data:
      cpb: bitrate max/min/avg: 0/0/3500000 buffer size: 0 vbv_delay: -1
Stream mapping:
  Stream #0:0 -> #0:0 (rawvideo (native) -> h264 (libx264))
Press [q] to stop, [?] for help
frame=    8 fps=0.0 q=0.0 size=       0kB time=00:00:00.00 bitrate=N/A speed=   0x    frame=   25 fps= 22 q=0.0 size=       0kB time=00:00:00.00 bitrate=N/A speed=   0x    frame=   37 fps= 12 q=0.0 size=       0kB time=00:00:00.00 bitrate=N/A speed=   0x    frame=   44 fps= 12 q=44.0 size=       1kB time=00:00:00.02 bitrate= 279.6kbits/s speed=0.00581x    frame=   48 fps= 12 q=50.0 size=       1kB time=00:00:00.10 bitrate=  58.1kbits/s speed=0.0245x    frame=   55 fps= 12 q=60.0 size=       1kB time=00:00:00.24 bitrate=  24.4kbits/s speed=0.0521x    frame=   64 fps= 12 q=60.0 size=       1kB time=00:00:00.42 bitrate=  13.9kbits/s speed=0.0809x    frame=   73 fps= 13 q=62.0 size=       1kB time=00:00:00.60 bitrate=   9.8kbits/s speed=0.105x    frame=   80 fps= 13 q=62.0 size=       1kB time=00:00:00.74 bitrate=   7.9kbits/s speed=0.119x    frame=   88 fps= 13 q=62.0 size=       1kB time=00:00:00.90 bitrate=   6.5kbits/s speed=0.134x    frame=   92 fps= 13 q=62.0 size=       1kB time=00:00:00.98 bitrate=   6.0kbits/s speed=0.135x    frame=  102 fps= 13 q=62.0 size=       1kB time=00:00:01.18 bitrate=   5.0kbits/s speed=0.151x    frame=  110 fps= 13 q=62.0 size=       1kB time=00:00:01.34 bitrate=   4.4kbits/s speed=0.161x    frame=  118 fps= 13 q=62.0 size=       1kB time=00:00:01.50 bitrate=   3.9kbits/s speed=0.17x    frame=  127 fps= 14 q=62.0 size=       1kB time=00:00:01.68 bitrate=   3.5kbits/s speed=0.179x    frame=  136 fps= 14 q=62.0 size=       1kB time=00:00:01.86 bitrate=   3.2kbits/s speed=0.187x    frame=  146 fps= 14 q=62.0 size=       1kB time=00:00:02.06 bitrate=   2.8kbits/s speed=0.195x    frame=  155 fps= 14 q=62.0 size=       1kB time=00:00:02.24 bitrate=   2.6kbits/s speed=0.202x    frame=  164 fps= 14 q=61.0 size=       1kB time=00:00:02.42 bitrate=   2.4kbits/s speed=0.209x    frame=  173 fps= 14 q=61.0 size=       1kB time=00:00:02.60 bitrate=   2.3kbits/s speed=0.215x    frame=  181 fps= 14 q=61.0 size=       1kB time=00:00:02.76 bitrate=   2.1kbits/s speed=0.219x    frame=  188 fps= 14 q=61.0 size=       1kB time=00:00:02.90 bitrate=   2.0kbits/s speed=0.221x    frame=  198 fps= 14 q=61.0 size=       1kB time=00:00:03.10 bitrate=   1.9kbits/s speed=0.226x    frame=  207 fps= 15 q=61.0 size=       1kB time=00:00:03.28 bitrate=   1.8kbits/s speed=0.23x    frame=  216 fps= 15 q=61.0 size=       1kB time=00:00:03.46 bitrate=   1.7kbits/s speed=0.234x    frame=  225 fps= 15 q=61.0 size=       1kB time=00:00:03.64 bitrate=   1.6kbits/s speed=0.237x    frame=  233 fps= 15 q=61.0 size=       1kB time=00:00:03.80 bitrate=   1.5kbits/s speed=0.239x    frame=  242 fps= 15 q=61.0 size=       1kB time=00:00:03.98 bitrate=   1.5kbits/s speed=0.242x    frame=  251 fps= 15 q=61.0 size=       1kB time=00:00:04.16 bitrate=   1.4kbits/s speed=0.246x    frame=  260 fps= 15 q=61.0 size=       1kB time=00:00:04.34 bitrate=   1.4kbits/s speed=0.248x    frame=  269 fps= 15 q=61.0 size=       1kB time=00:00:04.52 bitrate=   1.3kbits/s speed=0.25x    frame=  278 fps= 15 q=61.0 size=       1kB time=00:00:04.70 bitrate=   1.2kbits/s speed=0.252x    frame=  287 fps= 14 q=61.0 size=       1kB time=00:00:04.88 bitrate=   1.2kbits/s speed=0.244x    frame=  292 fps= 14 q=61.0 size=    2311kB time=00:00:04.98 bitrate=3800.1kbits/s speed=0.243x    frame=  301 fps= 14 q=61.0 size=    2311kB time=00:00:05.16 bitrate=3667.6kbits/s speed=0.246x    frame=  310 fps= 14 q=61.0 size=    2311kB time=00:00:05.34 bitrate=3544.0kbits/s speed=0.247x    frame=  319 fps= 14 q=61.0 size=    2311kB time=00:00:05.52 bitrate=3428.4kbits/s speed=0.249x    frame=  328 fps= 14 q=61.0 size=    2311kB time=00:00:05.70 bitrate=3320.2kbits/s speed=0.251x    frame=  337 fps= 14 q=61.0 size=    2311kB time=00:00:05.88 bitrate=3218.6kbits/s speed=0.253x    frame=  345 fps= 14 q=61.0 size=    2311kB time=00:00:06.04 bitrate=3133.3kbits/s speed=0.253x    frame=  354 fps= 15 q=61.0 size=    2311kB time=00:00:06.22 bitrate=3042.6kbits/s speed=0.255x    frame=  362 fps= 14 q=61.0 size=    2311kB time=00:00:06.38 bitrate=2966.4kbits/s speed=0.255x    frame=  370 fps= 14 q=61.0 size=    2311kB time=00:00:06.54 bitrate=2893.8kbits/s speed=0.256x    frame=  380 fps= 15 q=62.0 size=    2311kB time=00:00:06.74 bitrate=2807.9kbits/s speed=0.258x    frame=  389 fps= 15 q=62.0 size=    2311kB time=00:00:06.92 bitrate=2734.9kbits/s speed=0.26x    frame=  397 fps= 15 q=62.0 size=    2311kB time=00:00:07.08 bitrate=2673.1kbits/s speed=0.261x    frame=  405 fps= 15 q=62.0 size=    2311kB time=00:00:07.24 bitrate=2614.0kbits/s speed=0.262x    frame=  413 fps= 15 q=62.0 size=    2311kB time=00:00:07.40 bitrate=2557.5kbits/s speed=0.262x    frame=  420 fps= 15 q=62.0 size=    2311kB time=00:00:07.54 bitrate=2510.1kbits/s speed=0.262x    frame=  429 fps= 15 q=62.0 size=    2311kB time=00:00:07.72 bitrate=2451.5kbits/s speed=0.264x    frame=  437 fps= 15 q=62.0 size=    2311kB time=00:00:07.88 bitrate=2401.8kbits/s speed=0.264x    frame=  445 fps= 15 q=62.0 size=    2311kB time=00:00:08.04 bitrate=2354.0kbits/s speed=0.265x    frame=  452 fps= 15 q=62.0 size=    2311kB time=00:00:08.18 bitrate=2313.7kbits/s speed=0.264x    frame=  461 fps= 15 q=62.0 size=    2311kB time=00:00:08.36 bitrate=2263.9kbits/s speed=0.265x    frame=  468 fps= 15 q=62.0 size=    2311kB time=00:00:08.50 bitrate=2226.6kbits/s speed=0.265x    frame=  474 fps= 15 q=62.0 size=    2311kB time=00:00:08.62 bitrate=2195.6kbits/s speed=0.265x    frame=  484 fps= 15 q=62.0 size=    2311kB time=00:00:08.82 bitrate=2145.8kbits/s speed=0.266x    frame=  492 fps= 15 q=62.0 size=    2311kB time=00:00:08.98 bitrate=2107.6kbits/s speed=0.267x    frame=  499 fps= 14 q=62.0 size=    2311kB time=00:00:09.12 bitrate=2075.2kbits/s speed=0.264x    frame=  500 fps= 14 q=-1.0 Lsize=    4632kB time=00:00:09.94 bitrate=3817.1kbits/s speed=0.273x    
video:4628kB audio:0kB subtitle:0kB other streams:0kB global headers:0kB muxing overhead: 0.091371%
bench: utime=120.720s
bench: maxrss=1595512kB
[libx264 @ 0x32c81c0] frame I:2     Avg QP:44.94  size:108088
[libx264 @ 0x32c81c0] frame P:126   Avg QP:50.87  size: 15890
[libx264 @ 0x32c81c0] frame B:372   Avg QP:50.90  size:  6774
[libx264 @ 0x32c81c0] consecutive B-frames:  0.8%  0.0%  0.0% 99.2%
[libx264 @ 0x32c81c0] mb I  I16..4: 38.2% 57.5%  4.3%
[libx264 @ 0x32c81c0] mb P  I16..4:  6.2%  2.2%  0.0%  P16..4: 16.0%  1.5%  4.5%  0.0%  0.0%    skip:69.5%
[libx264 @ 0x32c81c0] mb B  I16..4:  0.0%  0.0%  0.0%  B16..8:  9.9%  0.1%  0.0%  direct: 3.0%  skip:87.0%  L0:46.4% L1:53.5% BI: 0.1%
[libx264 @ 0x32c81c0] final ratefactor: 53.60
[libx264 @ 0x32c81c0] 8x8 transform intra:31.6% inter:98.1%
[libx264 @ 0x32c81c0] coded y,uvDC,uvAC intra: 6.0% 32.4% 2.4% inter: 0.5% 2.8% 0.0%
[libx264 @ 0x32c81c0] i16 v,h,dc,p: 71% 20%  5%  3%
[libx264 @ 0x32c81c0] i8 v,h,dc,ddl,ddr,vr,hd,vl,hu: 11%  7% 63%  4%  3%  3%  3%  3%  2%
[libx264 @ 0x32c81c0] i4 v,h,dc,ddl,ddr,vr,hd,vl,hu: 27% 19% 12%  9%  8%  8%  7%  6%  5%
[libx264 @ 0x32c81c0] i8c dc,h,v,p: 97%  1%  2%  0%
[libx264 @ 0x32c81c0] Weighted P-Frames: Y:1.6% UV:0.0%
[libx264 @ 0x32c81c0] ref P L0: 55.9% 44.1%
[libx264 @ 0x32c81c0] ref B L0: 78.4% 21.6%
[libx264 @ 0x32c81c0] ref B L1: 91.9%  8.1%
[libx264 @ 0x32c81c0] kb/s:3790.57
